<svg width="512" height="512" viewBox="0 0 512 512" fill="none" xmlns="http://www.w3.org/2000/svg">
  <defs>
    <linearGradient id="bg" x1="80" y1="60" x2="470" y2="470" gradientUnits="userSpaceOnUse">
      <stop offset="0" stop-color="#0C57DB"/>
      <stop offset="0.58" stop-color="#14ADA4"/>
      <stop offset="1" stop-color="#F09A25"/>
    </linearGradient>
    <radialGradient id="glow" cx="0" cy="0" r="1" gradientUnits="userSpaceOnUse" gradientTransform="translate(160 144) rotate(48) scale(170 170)">
      <stop stop-color="#ffffff" stop-opacity="0.34"/>
      <stop offset="1" stop-color="#ffffff" stop-opacity="0"/>
    </radialGradient>
  </defs>

  <rect x="18" y="18" width="476" height="476" rx="108" fill="url(#bg)"/>
  <circle cx="176" cy="160" r="152" fill="url(#glow)"/>
  <circle cx="330" cy="336" r="122" stroke="#ffffff" stroke-opacity="0.22" stroke-width="14"/>

  <g fill="#ffffff">
    <path d="M188 340c-9-9-9-24 0-33l134-134c9-9 24-9 33 0 9 9 9 24 0 33L221 340c-9 9-24 9-33 0z"/>
    <path d="M160 368c-8 0-14 6-14 14s6 14 14 14 14-6 14-14-6-14-14-14z"/>
    <path d="M345 128l8 24 24 8-24 8-8 24-8-24-24-8 24-8 8-24z"/>
    <path d="M389 199l5 14 14 5-14 5-5 14-5-14-14-5 14-5 5-14z"/>
  </g>
</svg>
